<?xml version="1.0" encoding="UTF-8" standalone="no"?>
<svg
   xmlns:dc="http://purl.org/dc/elements/1.1/"
   xmlns:cc="http://creativecommons.org/ns#"
   xmlns:rdf="http://www.w3.org/1999/02/22-rdf-syntax-ns#"
   xmlns:svg="http://www.w3.org/2000/svg"
   xmlns="http://www.w3.org/2000/svg"
   xmlns:sodipodi="http://sodipodi.sourceforge.net/DTD/sodipodi-0.dtd"
   xmlns:inkscape="http://www.inkscape.org/namespaces/inkscape"
   width="60.211"
   height="60.211"
   viewBox="0 0 60.211 60.211"
   version="1.1"
   id="svg3935"
   sodipodi:docname="train.svg"
   inkscape:version="0.92.4 (5da689c313, 2019-01-14)">
  <metadata
     id="metadata3941">
    <rdf:RDF>
      <cc:Work
         rdf:about="">
        <dc:format>image/svg+xml</dc:format>
        <dc:type
           rdf:resource="http://purl.org/dc/dcmitype/StillImage" />
        <dc:title></dc:title>
      </cc:Work>
    </rdf:RDF>
  </metadata>
  <defs
     id="defs3939" />
  <sodipodi:namedview
     pagecolor="#ffffff"
     bordercolor="#666666"
     borderopacity="1"
     objecttolerance="10"
     gridtolerance="10"
     guidetolerance="10"
     inkscape:pageopacity="0"
     inkscape:pageshadow="2"
     inkscape:window-width="1920"
     inkscape:window-height="1017"
     id="namedview3937"
     showgrid="false"
     inkscape:zoom="11.086161"
     inkscape:cx="21.607527"
     inkscape:cy="34.545333"
     inkscape:window-x="-8"
     inkscape:window-y="-8"
     inkscape:window-maximized="1"
     inkscape:current-layer="svg3935" />
  <g
     id="Group_20"
     data-name="Group 20"
     transform="translate(0 0)">
    <path
       id="Path_55"
       data-name="Path 55"
       d="M49.094,47.982a2.978,2.978,0,0,0,2.085-2.824V12.042A12.056,12.056,0,0,0,39.137,0H21.074A12.056,12.056,0,0,0,9.032,12.042V45.158a2.978,2.978,0,0,0,2.085,2.824L0,60.211H4.067L9.541,54.19H50.671l5.474,6.021h4.066ZM12.042,15.053H28.6v9.032H12.042Zm0,18.063h4.516a1.505,1.505,0,1,1,0,3.011H12.042Zm.236,18.063,2.737-3.011H45.2l2.737,3.011ZM48.169,36.126H43.653a1.505,1.505,0,1,1,0-3.011h4.516Zm0-6.021H43.653a4.516,4.516,0,1,0,0,9.032h4.516v6.021H12.042V39.137h4.516a4.516,4.516,0,1,0,0-9.032H12.042V27.095H48.169Zm0-6.021H31.611V15.053H48.169v9.032ZM12.042,12.042a9.031,9.031,0,0,1,9.032-9.032H39.137a9.031,9.031,0,0,1,9.032,9.032Z"
       transform="translate(0 0)"
       fill="#ff4a52"
       style="fill:#112b00" />
  </g>
</svg>
